HIERARCHY
ROOT SpineBase
{
  OFFSET 0.000000 0.000000 0.000000
  CHANNELS 6 Xposition Yposition Zposition Zrotation Xrotation Yrotation
  JOINT SpineMid
  {
    OFFSET 0.000000 29.485482 0.000000
    CHANNELS 3 Zrotation Xrotation Yrotation
    JOINT SpineShoulder
    {
      OFFSET -0.003872 21.853630 -0.661292
      CHANNELS 3 Zrotation Xrotation Yrotation
      JOINT Neck
      {
        OFFSET -0.029167 7.229512 -0.528983
        CHANNELS 3 Zrotation Xrotation Yrotation
        JOINT Head
        {
          OFFSET 5.307581 12.719819 0.569154
          CHANNELS 3 Zrotation Xrotation Yrotation
          End Site
          {
            OFFSET 0 0 0
          }
        }
      }
      JOINT ShoulderLeft
      {
        OFFSET -13.777225 -3.543444 -8.648717
        CHANNELS 3 Zrotation Xrotation Yrotation
        JOINT ElbowLeft
        {
          OFFSET -6.168853 -23.479082 -0.818310
          CHANNELS 3 Zrotation Xrotation Yrotation
          JOINT WristLeft
          {
            OFFSET 0.226412 -19.485590 -4.201336
            CHANNELS 3 Zrotation Xrotation Yrotation
            JOINT HandLeft
            {
              OFFSET 0.730960 -7.096989 0.289961
              CHANNELS 3 Zrotation Xrotation Yrotation
              JOINT HandTipLeft
              {
                OFFSET 0.201195 -6.347426 -0.656486
                CHANNELS 3 Zrotation Xrotation Yrotation
                End Site
                {
                  OFFSET 0 0 0
                }
              }
              JOINT ThumbLeft
              {
                OFFSET -3.646332 0.615838 -1.305012
                CHANNELS 3 Zrotation Xrotation Yrotation
                End Site
                {
                  OFFSET 0 0 0
                }
              }
            }
          }
        }
      }
      JOINT ShoulderRight
      {
        OFFSET 14.819205 -5.924289 3.652639
        CHANNELS 3 Zrotation Xrotation Yrotation
        JOINT ElbowRight
        {
          OFFSET 1.688570 -25.642140 2.680760
          CHANNELS 3 Zrotation Xrotation Yrotation
          JOINT WristRight
          {
            OFFSET -0.968102 -21.738687 -4.773479
            CHANNELS 3 Zrotation Xrotation Yrotation
            JOINT HandRight
            {
              OFFSET -1.424491 -4.528748 -0.008473
              CHANNELS 3 Zrotation Xrotation Yrotation
              JOINT HandTipRight
              {
                OFFSET -2.041480 -7.368251 0.152655
                CHANNELS 3 Zrotation Xrotation Yrotation
                End Site
                {
                  OFFSET 0 0 0
                }
              }
              JOINT ThumbRight
              {
                OFFSET 2.248818 -1.453760 -2.064295
                CHANNELS 3 Zrotation Xrotation Yrotation
                End Site
                {
                  OFFSET 0 0 0
                }
              }
            }
          }
        }
      }
    }
  }
  JOINT HipLeft
  {
    OFFSET -6.686201 1.265612 -5.311641
    CHANNELS 3 Zrotation Xrotation Yrotation
    JOINT KneeLeft
    {
      OFFSET -8.584498 -27.851932 5.308836
      CHANNELS 3 Zrotation Xrotation Yrotation
      JOINT AnkleLeft
      {
        OFFSET -3.637302 -32.680083 6.747767
        CHANNELS 3 Zrotation Xrotation Yrotation
        JOINT FootLeft
        {
          OFFSET 3.185863 -3.857891 -11.703521
          CHANNELS 3 Zrotation Xrotation Yrotation
          End Site
          {
            OFFSET 0 0 0
          }
        }
      }
    }
  }
  JOINT HipRight
  {
    OFFSET 5.905621 0.266730 -0.956989
    CHANNELS 3 Zrotation Xrotation Yrotation
    JOINT KneeRight
    {
      OFFSET -9.073748 -30.475399 7.885281
      CHANNELS 3 Zrotation Xrotation Yrotation
      JOINT AnkleRight
      {
        OFFSET -7.362341 -29.362616 5.921954
        CHANNELS 3 Zrotation Xrotation Yrotation
        JOINT FootRight
        {
          OFFSET 5.674717 -2.894279 -14.010152
          CHANNELS 3 Zrotation Xrotation Yrotation
          End Site
          {
            OFFSET 0 0 0
          }
        }
      }
    }
  }
}
MOTION
Frames: 6
Frame Time: 0.033333
40.964641 67.271983 320.139763 -0.000000 0.000000 -19.077008 0.000000 0.000000 19.077008 -0.000000 0.000000 0.000000 -0.000000 0.000000 0.000000 0.000000 0.000000 0.000000 -0.000000 0.000000 0.000000 -0.000000 0.000000 0.000000 -0.000000 0.000000 0.000000 -0.000000 0.000000 0.000000 0.000000 0.000000 0.000000 0.000000 0.000000 0.000000 -0.000000 0.000000 0.000000 -0.000000 0.000000 0.000000 -0.000000 0.000000 0.000000 -0.000000 0.000000 0.000000 0.000000 0.000000 0.000000 0.000000 0.000000 0.000000 0.000000 0.000000 19.077008 -0.000000 0.000000 0.000000 -0.000000 0.000000 0.000000 0.000000 0.000000 0.000000 0.000000 0.000000 19.077008 -0.000000 0.000000 0.000000 -0.000000 0.000000 0.000000 0.000000 0.000000 0.000000
40.979746 67.267965 320.165380 0.000661 -0.075946 -19.195804 -0.025595 0.071506 19.195821 -0.000000 0.000000 0.000000 -0.000000 0.000000 0.000000 0.000000 0.000000 0.000000 -0.000000 0.000000 0.000000 -0.000000 0.000000 0.000000 0.004743 1.070436 0.110445 -0.006808 -1.070425 -0.110553 0.000000 0.000000 0.000000 0.000000 0.000000 0.000000 -0.000000 0.000000 0.000000 -0.000000 0.000000 0.000000 -0.190714 1.083989 -0.338627 1.329231 -0.975873 0.358379 0.000000 0.000000 0.000000 0.000000 0.000000 0.000000 -0.025595 0.071506 19.195821 -0.000000 0.000000 0.000000 -0.000000 0.000000 0.000000 0.000000 0.000000 0.000000 -0.025595 0.071506 19.195821 -0.000000 0.000000 0.000000 -2.959152 -5.220676 5.415877 0.000000 0.000000 0.000000
40.992919 67.265012 320.187450 0.000201 -0.145644 -19.303972 -0.048337 0.137389 19.304030 -0.000000 0.000000 0.000000 -0.000000 0.000000 0.000000 0.000000 0.000000 0.000000 -0.893983 0.151268 -0.007390 0.919654 -0.988938 -0.005254 -0.008019 2.775288 0.215338 -0.685143 -2.784977 -0.187085 0.000000 0.000000 0.000000 0.000000 0.000000 0.000000 -0.000000 0.000000 0.000000 -0.000000 0.000000 0.000000 -0.445042 1.704724 -0.528133 2.470688 -1.515710 0.593983 0.000000 0.000000 0.000000 0.000000 0.000000 0.000000 -0.048337 0.137389 19.304030 -0.000000 0.000000 0.000000 -0.000000 0.000000 0.000000 0.000000 0.000000 0.000000 -0.048337 0.137389 19.304030 -0.000000 0.000000 0.000000 -5.761929 -11.494870 11.362623 0.000000 0.000000 0.000000
41.004160 67.263125 320.205972 -0.001379 -0.209110 -19.401589 -0.068163 0.197693 19.401704 -0.000000 0.000000 0.000000 -0.568381 -0.564502 0.257706 0.000000 0.000000 0.000000 -1.218046 0.204431 -0.009059 1.263162 -1.314123 -0.008606 -0.005471 3.736465 0.293841 -0.850493 -3.808454 -0.274297 0.000000 0.000000 0.000000 0.000000 0.000000 0.000000 -0.000000 0.000000 0.000000 -0.000000 0.000000 0.000000 -0.770543 1.942906 -0.595397 3.428282 -1.709639 0.706495 0.000000 0.000000 0.000000 0.000000 0.000000 0.000000 -0.068163 0.197693 19.401704 -0.000000 0.000000 0.000000 -0.000000 0.000000 0.000000 0.000000 0.000000 0.000000 -0.068163 0.197693 19.401704 -0.000000 0.000000 0.000000 -8.016676 -18.251681 17.368434 0.000000 0.000000 0.000000
41.013470 67.262305 320.220948 -0.004078 -0.266354 -19.488725 -0.085017 0.252454 19.488902 -0.000000 0.000000 0.000000 -0.727339 -0.700680 0.319713 0.000000 0.000000 0.000000 -1.447445 0.240398 -0.009642 1.516453 -1.530709 -0.013080 0.001991 4.447091 0.355573 -0.907258 -4.625279 -0.349794 0.000000 0.000000 0.000000 0.000000 0.000000 0.000000 -0.000000 0.000000 0.000000 -0.000000 0.000000 0.000000 -1.177441 1.835801 -0.554608 4.208878 -1.602288 0.693025 0.000000 0.000000 0.000000 0.000000 0.000000 0.000000 -0.085017 0.252454 19.488902 -0.000000 0.000000 0.000000 -0.000000 0.000000 0.000000 0.000000 0.000000 0.000000 -0.085017 0.252454 19.488902 -0.000000 0.000000 0.000000 -9.472572 -24.545107 22.816833 0.000000 0.000000 0.000000
41.020849 67.262551 320.232376 -0.007897 -0.317388 -19.565440 -0.098848 0.301706 19.565678 -0.000000 0.000000 0.000000 -0.871031 -0.810550 0.369979 0.000000 0.000000 0.000000 -1.575829 0.258102 -0.009304 1.673309 -1.640339 -0.019064 0.014740 4.923439 0.401978 -0.857909 -5.255350 -0.410876 0.000000 0.000000 0.000000 0.000000 0.000000 0.000000 -0.000000 0.000000 0.000000 -0.000000 0.000000 0.000000 -1.680246 1.387567 -0.411073 4.821581 -1.204078 0.547320 0.000000 0.000000 0.000000 0.000000 0.000000 0.000000 -0.098848 0.301706 19.565678 -0.000000 0.000000 0.000000 -0.000000 0.000000 0.000000 0.000000 0.000000 0.000000 -0.098848 0.301706 19.565678 -0.000000 0.000000 0.000000 -10.177949 -29.465088 27.115323 0.000000 0.000000 0.000000
